<svg xmlns="http://www.w3.org/2000/svg" viewBox="0 0 513 513" width="513" height="513">
	<defs>
		<filter id="flt1"> <feColorMatrix in="SourceGraphic" type="matrix" values="0 0 0 0 1   0 0 0 0 1   0 0 0 0 1   0 0 0 1 0" /> </filter>
	</defs>
	<style>
		tspan { white-space:pre }
		.shp0 { fill: #000000 } 
	</style>
	<g id="Layer" style="filter: url(#flt1)">
		<g id="google">
			<path id="Layer" class="shp0" d="M412.69,384.62c0,62.6 -56.13,127.37 -172.7,127.37c-97.15,0 -142.48,-47.49 -142.48,-97.14c0,-23.75 10.79,-56.13 49.65,-79.87c41.02,-25.9 97.14,-32.38 127.37,-34.54c-10.79,-12.95 -19.43,-21.59 -19.43,-43.18c0,-10.79 6.48,-21.59 8.64,-28.06h-17.27c-69.08,0 -107.94,-53.97 -107.94,-103.62c0,-64.76 47.49,-125.21 142.48,-125.21h133.84l-25.9,30.22h-36.7c15.11,12.95 43.18,38.86 43.18,84.19c0,47.49 -28.06,71.24 -56.13,92.83c-10.79,6.48 -21.59,19.43 -21.59,34.54c0,15.11 8.63,23.75 17.27,30.22l23.75,17.27c30.22,25.9 53.97,49.65 53.97,94.99zM276.68,209.76c17.27,0 62.6,-10.79 62.6,-66.92c0,-43.18 -30.22,-118.73 -86.35,-118.73c-30.22,0 -58.29,21.59 -58.29,69.08c0,49.65 28.06,116.57 82.03,116.57zM371.67,408.37c0,-34.54 -21.59,-49.65 -73.4,-86.35c-4.32,0 -8.64,0 -15.11,0c-6.48,0 -43.18,2.16 -71.24,10.79c-12.95,6.48 -56.13,21.59 -56.13,69.08c0,47.49 45.33,79.87 116.57,79.87c58.29,0 99.3,-32.38 99.3,-73.4z" />
		</g>
	</g>
</svg>