<svg xmlns="http://www.w3.org/2000/svg" viewBox="0 0 512 512" width="512" height="512">
	<defs>
		<filter id="flt1"> <feColorMatrix in="SourceGraphic" type="matrix" values="0 0 0 0 0.502   0 0 0 0 0.502   0 0 0 0 0.502   0 0 0 1 0" /> </filter>
	</defs>
	<style>
		tspan { white-space:pre }
		.shp0 { fill: #000000 } 
	</style>
	<g id="Layer" style="filter: url(#flt1)">
		<path id="Layer" class="shp0" d="M492.42,234.24l-214.23,-214.22c-12.33,-12.34 -32.34,-12.34 -44.69,0l-44.48,44.49l56.43,56.43c13.11,-4.43 28.15,-1.46 38.6,9c10.51,10.52 13.46,25.69 8.92,38.85l54.39,54.38c13.16,-4.54 28.34,-1.6 38.85,8.92c14.69,14.68 14.69,38.48 0,53.17c-14.69,14.69 -38.49,14.69 -53.19,0c-11.05,-11.06 -13.78,-27.29 -8.18,-40.9l-50.73,-50.72v133.48c3.58,1.77 6.96,4.14 9.94,7.11c14.69,14.69 14.69,38.48 0,53.19c-14.69,14.68 -38.5,14.68 -53.17,0c-14.69,-14.7 -14.69,-38.5 0,-53.18c3.63,-3.62 7.83,-6.37 12.32,-8.2v-134.71c-4.49,-1.84 -8.68,-4.56 -12.32,-8.21c-11.12,-11.12 -13.8,-27.44 -8.09,-41.1l-55.63,-55.64l-146.9,146.89c-12.34,12.35 -12.34,32.36 0,44.7l214.24,214.22c12.33,12.34 32.34,12.34 44.69,0l213.23,-213.23c12.34,-12.34 12.34,-32.36 0,-44.7z" />
	</g>
</svg>