<svg xmlns="http://www.w3.org/2000/svg" viewBox="0 0 512 512" width="512" height="512">
	<defs>
		<filter id="flt1"> <feColorMatrix in="SourceGraphic" type="matrix" values="0 0 0 0 0.502   0 0 0 0 0.502   0 0 0 0 0.502   0 0 0 1 0" /> </filter>
		<filter id="flt2"> <feColorMatrix in="SourceGraphic" type="matrix" values="0 0 0 0 0.502   0 0 0 0 0.502   0 0 0 0 0.502   0 0 0 1 0" /> </filter>
	</defs>
	<style>
		tspan { white-space:pre }
		.shp0 { filter: url(#flt1);fill: #808080 } 
		.shp1 { filter: url(#flt2);fill: #808080 } 
	</style>
	<path id="Layer" class="shp0" d="M508.98,255.32c0,31.7 -37.65,62.69 -95.51,81.86c-3.06,1.01 -6.19,1.99 -9.38,2.93c1.14,4.58 2.15,9.08 3.03,13.49c11.42,57.7 2.62,105.12 -24.45,120.8c-26.21,15.17 -68.58,0.27 -111.47,-36.64c-4.53,-3.9 -9.08,-8.06 -13.64,-12.45c-3.52,3.4 -7.03,6.65 -10.53,9.7c-44.28,38.71 -89.76,54.77 -116.86,39.15c-26.23,-15.13 -34.48,-59.28 -23.92,-114.87c1.11,-5.87 2.44,-11.88 3.96,-18.02c-4.7,-1.35 -9.25,-2.77 -13.65,-4.27c-55.66,-19.02 -92.29,-50.4 -92.29,-81.68c0,-30.29 34.13,-59.48 87.56,-78.11c5.97,-2.08 12.21,-4.04 18.68,-5.87c-1.41,-5.68 -2.66,-11.26 -3.73,-16.72c-11.07,-56.58 -3.28,-101.79 23.02,-117.02c27.43,-15.88 73.12,1.17 118.7,41.64c2.78,2.47 5.57,5.05 8.36,7.72c4.19,-4.04 8.38,-7.89 12.57,-11.53c43.49,-37.85 86.55,-53.68 112.88,-38.5c27.46,15.83 35.5,63.93 23.2,123.63c-0.75,3.64 -1.59,7.34 -2.51,11.08c5.59,1.61 11.01,3.32 16.25,5.12c54.51,18.76 89.74,48.16 89.74,78.56zM271.96,102.34c14.43,15.54 28.8,33.5 42.67,53.25c23.81,2.23 46.55,5.83 67.49,10.66c0.83,-3.39 1.59,-6.75 2.27,-10.03c10.62,-51.55 4.05,-90.86 -12.85,-100.6c-15.87,-9.15 -50.69,3.65 -87.96,36.08c-3.86,3.36 -7.73,6.91 -11.61,10.65zM186.25,296.51h0c7.84,13.54 16.12,26.64 24.67,39.13c14.71,0.96 29.99,1.44 45.69,1.44c15.77,0 31.25,-0.56 46.22,-1.62c8.22,-12.33 16.32,-25.39 24.21,-39.07c7.88,-13.67 15.13,-27.34 21.69,-40.85c-6.57,-13.28 -13.85,-26.83 -21.76,-40.5c-7.82,-13.52 -15.97,-26.51 -24.32,-38.83c-15.01,-1.15 -30.42,-1.74 -46.04,-1.74c-15.56,0 -30.95,0.59 -45.96,1.73c-8.48,12.41 -16.68,25.44 -24.47,38.96l0,0c-7.77,13.48 -14.95,27.11 -21.47,40.69c6.52,13.54 13.72,27.16 21.54,40.67zM136.92,325.75c14.4,3.13 29.98,5.63 46.52,7.48c-5.44,-8.44 -10.74,-17.09 -15.85,-25.92h0c-5.02,-8.67 -9.79,-17.39 -14.31,-26.11c-6.41,15.21 -11.9,30.17 -16.36,44.56zM167.51,204.38v0c5,-8.67 10.17,-17.16 15.47,-25.43c-16,2 -31.36,4.63 -45.76,7.85c4.39,14.14 9.76,28.78 16.04,43.67c4.51,-8.73 9.26,-17.45 14.25,-26.1zM330.23,332.84c16.65,-2 32.45,-4.69 47.08,-8.02c-4.51,-14.15 -10.2,-29.02 -16.95,-44.4c-4.62,8.9 -9.5,17.83 -14.64,26.74c-5.08,8.81 -10.26,17.38 -15.5,25.68zM376.32,187.04c-14.49,-3.31 -29.92,-6.01 -46.02,-8.04c5.23,8.19 10.35,16.62 15.35,25.24c5.1,8.81 9.94,17.57 14.52,26.26c6.38,-14.94 11.81,-29.52 16.16,-43.46zM226.91,153.6c9.81,-0.46 19.73,-0.7 29.71,-0.7c10.08,0 20.07,0.24 29.94,0.71c-9.8,-13.05 -19.75,-25.08 -29.7,-35.86c-10.1,10.9 -20.15,22.91 -29.95,35.84zM127.93,150.47c0.99,5.07 2.16,10.27 3.47,15.55c20.89,-4.73 43.62,-8.27 67.35,-10.47c13.84,-19.54 28.33,-37.46 43,-53.21c-2.53,-2.42 -5.06,-4.76 -7.57,-6.99c-39.35,-34.94 -76.69,-48.88 -93.58,-39.1c-15.86,9.18 -22.15,45.75 -12.67,94.22zM140.89,255.85c-10,-21.72 -18.28,-43.2 -24.6,-63.74c-6.02,1.71 -11.83,3.53 -17.37,5.47c-45.7,15.93 -73.1,39.38 -73.1,57.75c0,8.64 6.32,19.28 18.84,30c13.93,11.93 34.26,22.86 58.87,31.27c4,1.37 8.16,2.67 12.46,3.9c6.38,-20.79 14.78,-42.61 24.91,-64.65zM242.44,409.92c-14.74,-15.81 -29.36,-33.88 -43.33,-53.53c-24.46,-1.98 -47.34,-5.27 -68.02,-9.85c-1.42,5.72 -2.65,11.31 -3.68,16.76c-9.03,47.55 -2.41,82.99 13.51,92.17c7.48,4.31 19.86,4.16 35.4,-1.33c17.29,-6.11 36.92,-18.25 56.5,-35.37c3.19,-2.79 6.4,-5.75 9.62,-8.86zM287.09,357.96c-10.01,0.45 -20.18,0.68 -30.47,0.68c-10.01,0 -19.87,-0.19 -29.53,-0.57c9.95,13.12 20.15,25.32 30.37,36.34c9.88,-10.87 19.8,-23.09 29.63,-36.45zM385.96,357.79c-0.79,-3.98 -1.7,-8.06 -2.73,-12.21c-20.9,4.83 -43.95,8.37 -68.35,10.54c-13.87,20.08 -28.09,38.16 -42.31,53.72c4.25,4.09 8.49,7.95 12.69,11.57c36.69,31.57 70.7,43.54 86.61,34.33c7.47,-4.33 13.52,-15.13 16.53,-31.33c3.34,-18.03 2.62,-41.1 -2.43,-66.61zM487.42,255.32c0,-18.32 -28.49,-42.09 -75.2,-58.17c-4.83,-1.66 -9.84,-3.24 -15,-4.73c-6.21,20.09 -14.5,41.32 -24.56,63.01c10.55,22.22 19.17,43.72 25.56,63.94c2.88,-0.86 5.72,-1.74 8.48,-2.65c49.96,-16.56 80.73,-41.88 80.73,-61.4z" />
	<path id="Layer" class="shp1" d="M211.55,255.32c0,24.89 20.18,45.07 45.07,45.07c24.89,0 45.07,-20.18 45.07,-45.07c0,-24.89 -20.18,-45.07 -45.07,-45.07c-24.89,0 -45.07,20.18 -45.07,45.07z" />
</svg>