<svg xmlns="http://www.w3.org/2000/svg" viewBox="0 0 513 513" width="513" height="513">
	<defs>
		<filter id="flt1"> <feColorMatrix in="SourceGraphic" type="matrix" values="0 0 0 0 1   0 0 0 0 1   0 0 0 0 1   0 0 0 1 0" /> </filter>
	</defs>
	<style>
		tspan { white-space:pre }
		.shp0 { fill: #000000 } 
	</style>
	<g id="Layer" style="filter: url(#flt1)">
		<path id="Layer" class="shp0" d="M373.38,21.5l-60.86,-0.1c-68.37,0 -112.56,45.33 -112.56,115.5v53.25h-61.19c-5.29,0 -9.57,4.29 -9.57,9.57v77.16c0,5.29 4.29,9.57 9.57,9.57h61.19v194.69c0,5.29 4.28,9.57 9.57,9.57h79.84c5.28,0 9.56,-4.29 9.56,-9.57v-194.69h71.55c5.29,0 9.57,-4.28 9.57,-9.57l0.03,-77.16c0,-2.54 -1.01,-4.97 -2.8,-6.77c-1.79,-1.8 -4.23,-2.81 -6.77,-2.81h-71.58v-45.14c0,-21.7 5.17,-32.71 33.44,-32.71l41,-0.01c5.28,0 9.56,-4.29 9.56,-9.57v-71.64c0,-5.28 -4.28,-9.56 -9.55,-9.57z" />
	</g>
</svg>