<svg xmlns="http://www.w3.org/2000/svg" viewBox="0 0 513 513" width="513" height="513">
	<style>
		tspan { white-space:pre }
		.shp0 { fill: #000000 } 
	</style>
	<g id="Layer">
		<g id="Layer_20_51_">
			<g id="Layer">
				<path id="Layer" class="shp0" d="M164.27,342.44h69.75v16.08h-69.75v13.26h219.38v-13.26h-81.32v-16.08h90.44v-36.75h-228.5z" />
				<path id="Layer" class="shp0" d="M103.52,121.37h332.56v132.93h28.49v-161.43h-389.54v89.02h28.49z" />
				<path id="Layer" class="shp0" d="M6.33,190.84h148.75v223.14h-148.75zM91.01,395.62c0,-3.96 -3.2,-7.16 -7.16,-7.16c-3.95,0 -7.17,3.21 -7.17,7.16c0,3.96 3.22,7.16 7.17,7.16c3.97,0 7.16,-3.2 7.16,-7.16zM27.84,212.34v164.63h105.74l0.01,-164.63z" />
				<path id="Layer" class="shp0" d="M506.5,262.87v157.09h-103.63v-157.09zM454.51,271.62c0,1.24 1.02,2.28 2.28,2.28c1.24,0 2.26,-1.04 2.26,-2.28c0,-1.22 -1.02,-2.26 -2.26,-2.26c-1.26,0 -2.28,1.02 -2.28,2.26zM443.34,279.08h26.87v-2.17h-26.87zM461.27,407.8c0,-2.96 -2.42,-5.36 -5.38,-5.36c-2.98,0 -5.36,2.4 -5.36,5.36c0,2.96 2.38,5.38 5.36,5.38c2.96,0 5.38,-2.42 5.38,-5.38zM491.52,286.79l-73.64,0.01v108.02c12.02,0.1 49.38,0 73.64,-0.13z" />
			</g>
		</g>
	</g>
</svg>