<svg xmlns="http://www.w3.org/2000/svg" viewBox="0 0 512 512" width="512" height="512">
	<defs>
		<filter id="flt1"> <feColorMatrix in="SourceGraphic" type="matrix" values="0 0 0 0 0.502   0 0 0 0 0.502   0 0 0 0 0.502   0 0 0 1 0" /> </filter>
	</defs>
	<style>
		tspan { white-space:pre }
		.shp0 { filter: url(#flt1);fill: #808080 } 
	</style>
	<path id="Layer" class="shp0" d="M508.97,338.36c-0.83,21.15 -20.25,29.86 -23.85,30.47c-2.62,0.44 -4.04,0.52 -4.42,-1.54c-0.26,-1.42 0.68,-2.07 3.75,-3.98c3.07,-1.91 12.27,-8.2 13.92,-19.66c1.65,-11.46 -6.96,-38.84 -50.8,-43.95c-20.44,-2.38 -36.48,0.49 -48.88,5.65c2.3,5.97 4,12.17 4.26,18.43c0.57,13.74 -8.91,23.89 -18.77,31.14c-5.75,4.22 -11.91,7.05 -17.03,8.75c-4.11,1.74 -9.58,3.51 -13.45,2.73c-8.55,-1.73 -13.1,-9.31 -7.29,-26.06c3.15,-9.06 12.21,-22.86 26.84,-34.74c-3.34,-6.86 -7.06,-13.85 -8.94,-20.26c-3.72,-12.66 -4.86,-20.32 -4.86,-20.32c0,0 -12.05,24.98 -27.61,47.71c-0.9,1.32 -1.8,2.61 -2.69,3.9c3.05,7.09 5.47,14.59 5.79,22.16c0.57,13.74 -5.37,24.11 -15.24,31.37c-5.35,3.93 -11.04,6.64 -15.93,8.38c-3.13,1.37 -9.49,3.61 -18.52,4.21c-4.95,0.33 -9.7,0.02 -12.37,-1.99c-3.65,-2.75 -4.1,-6.18 -2.21,-10.82c1.6,-3.95 13.58,-17.62 23.63,-29.6c2.77,-3.3 5.41,-6.68 7.77,-9.82c-0.03,-0.07 -0.05,-0.12 -0.05,-0.12c0,0 1.81,-2.35 4.77,-6.45c-3.66,-7.91 -8.32,-16.13 -10.51,-23.59c-3.72,-12.66 -4.86,-20.32 -4.86,-20.32c0,0 -12.22,31.32 -24.96,56.32c-9.87,19.35 -16.44,31.09 -19.4,36.23c-0.02,0.14 -0.04,0.21 -0.04,0.21c0,0 -0.43,0.75 -1.19,1.92c-0.38,0.64 -0.57,0.96 -0.57,0.96c0,0 -0.01,-0.03 -0.02,-0.08c-3.3,4.88 -10.72,14.44 -18.09,14.44c-20.24,0 -12.81,-41.08 -12.81,-41.08c0,0 -5.92,15.2 -12.59,28.27c-5.44,10.65 -10.38,19.66 -21.2,19.66c-3.12,0 -8.05,-0.09 -12.15,-3.98c-9.31,-8.83 -16.41,-31.24 -15.02,-48.59c1.19,-14.76 3.47,-24.99 6.58,-33.52c-5.57,3.03 -11.97,6.6 -18.51,10.44c-3.35,1.96 -6.73,3.96 -10.04,5.92c0.1,0.19 0.22,0.39 0.32,0.59c8.32,16.07 10.53,51.27 -7.59,78.3c-18.13,27.04 -51.86,43.49 -84.73,34.35c-10.61,-2.95 -26.63,-24.87 -12.81,-55.44c12.18,-26.95 60.91,-52.44 73.74,-58.79c1.08,-0.59 2.26,-1.24 3.53,-1.94c-25.59,-22.38 -89.52,-52.59 -98.47,-98.96c-2.52,-13.05 3.6,-44.28 41.96,-80.18c32.27,-30.19 77.15,-53.3 118.61,-68.03c69.66,-24.75 143.26,-10.15 154.58,34.23c11.13,43.65 -26.76,95.86 -75.29,114.63c-43.33,16.76 -79.15,14.11 -93.87,9.28c-16.73,-5.5 -26.54,-16.53 -28.93,-22.75c-0.94,-2.44 -2.56,-6.53 0,-7.95c1.57,-0.87 2.2,-0.66 6.41,3.97c3.99,4.41 20.06,16.24 50.58,12.81c80.09,-8.97 128.33,-71.21 113.09,-104.69c-10.67,-23.44 -72.41,-34.01 -149.53,4.42c-94.15,46.92 -99.25,85.59 -100.05,100.28c-2.21,40.4 49.86,61.66 78.03,91.71c0.37,0.4 0.73,0.79 1.09,1.19c5.27,-2.91 10.84,-5.97 16.3,-8.97c14.21,-7.8 27.59,-15.11 33.85,-18.52c9.91,-14.4 30.04,-30.29 44.56,-30.29c23.23,0 15.24,33.35 15.24,33.35c0,0 0.47,-1.54 1.1,-1.55c0.65,-0.01 3.21,-4.39 10.38,-1.77c7.38,2.71 5.7,7.87 5.74,8.39c0.09,1.02 -8.71,30.68 -12.37,49.7c-1.75,9.07 -0.73,15.68 -0.22,15.68c0.73,0 2.19,-2.3 3.56,-4.79c-0.02,-0.05 -0.03,-0.07 -0.03,-0.07c0,0 1.02,-1.88 2.75,-5.25c0.22,-0.44 0.34,-0.71 0.34,-0.71c0,0 0,0.01 0.01,0.02c2.02,-3.97 4.88,-9.78 8.16,-17.02c6.44,-14.21 31.05,-69.03 33.13,-75.1c2.08,-6.06 3.18,-12.33 4.2,-15.02c1.02,-2.69 9.72,-4.71 19.88,-4.64c10.16,0.07 11.19,4.4 11.26,5.3c0.07,0.9 -4.84,12.93 -5.96,21.42c-1.12,8.49 -0.05,12.75 0.88,19.88c0.61,4.68 3.53,10.59 6.97,17.3c10.51,-17.2 29.03,-50.06 30.8,-59.28c1.21,-6.3 3.18,-12.33 4.2,-15.02c1.02,-2.69 9.72,-4.71 19.88,-4.64c10.16,0.07 11.19,4.4 11.26,5.3c0.07,0.9 -4.84,12.93 -5.96,21.42c-1.12,8.49 -0.05,12.75 0.88,19.88c0.79,6.11 5.53,14.32 10.21,23.66c12.79,-6.3 28.06,-10.54 45.68,-10.63c45.56,-0.24 71.3,29.25 70.23,56.13zM115.84,334.54c-0.77,0.46 -1.52,0.91 -2.25,1.35l0.02,0.03c0,0 -0.36,0.19 -0.99,0.55c-3.78,2.26 -6.89,4.14 -9.01,5.41c-9.3,5.81 -23.33,15.25 -34.19,25.49c-17.83,16.81 -21.54,40.13 -12.15,45.58c8.7,5.04 28.99,-0.95 43.51,-16.79c15.24,-16.63 21.53,-37.7 15.05,-61.62zM219.4,277.64c-2.11,-3.6 -10.85,-0.69 -18.77,8.17c-4.93,5.51 -13.31,19.7 -17.23,31.58c-7.79,23.61 -4.43,47.58 1.1,49.03c6.44,1.69 17.03,-29.86 22.09,-42.19c3.17,-7.73 15.52,-42.03 12.81,-46.6zM313.71,338.51c0,-0.41 -0.01,-0.81 -0.04,-1.23c-3.17,4.13 -6.07,7.83 -8.58,10.94c-4.31,5.36 -15.24,17.12 -15.24,17.12c0,0 -1.56,1.48 -0.88,1.88c0.91,0.54 2.88,-0.16 5.02,-1.28c6.07,-3.82 19.68,-13.33 19.71,-27.43zM381.74,323.49c0.02,-2.66 -0.56,-5.51 -1.51,-8.49c-8.19,7.24 -12.9,14.81 -14.96,19.32c-5.27,11.47 -5.53,15.14 -3.93,16.28c7.65,-2.75 20.29,-9.38 20.4,-27.1z" />
</svg>